<mxfile host="app.diagrams.net" modified="2022-01-25T08:35:45.841Z" agent="5.0 (Windows NT 10.0; Win64; x64) AppleWebKit/537.36 (KHTML, like Gecko) Chrome/97.0.4692.99 Safari/537.36" etag="0vp7KmJ2YDe9n1MiYFml" version="16.4.5" type="github">
  <diagram id="ZxXdf7TswpyFAYgrcc1g" name="第 1 页">
    <mxGraphModel dx="942" dy="719" grid="1" gridSize="10" guides="1" tooltips="1" connect="1" arrows="1" fold="1" page="1" pageScale="1" pageWidth="1169" pageHeight="827" background="none" math="0" shadow="1">
      <root>
        <mxCell id="0" />
        <mxCell id="1" parent="0" />
        <mxCell id="uw05SH3BXKOB_g-XB-hT-6" value="json" style="edgeStyle=orthogonalEdgeStyle;rounded=0;orthogonalLoop=1;jettySize=auto;html=1;entryX=0;entryY=0.5;entryDx=0;entryDy=0;" edge="1" parent="1" source="uw05SH3BXKOB_g-XB-hT-1" target="uw05SH3BXKOB_g-XB-hT-5">
          <mxGeometry relative="1" as="geometry" />
        </mxCell>
        <mxCell id="uw05SH3BXKOB_g-XB-hT-1" value="/inserTablesData" style="rounded=0;whiteSpace=wrap;html=1;fillColor=#d5e8d4;strokeColor=#82b366;" vertex="1" parent="1">
          <mxGeometry x="170" y="200" width="120" height="60" as="geometry" />
        </mxCell>
        <mxCell id="uw05SH3BXKOB_g-XB-hT-3" style="edgeStyle=orthogonalEdgeStyle;rounded=0;orthogonalLoop=1;jettySize=auto;html=1;" edge="1" parent="1" source="uw05SH3BXKOB_g-XB-hT-2" target="uw05SH3BXKOB_g-XB-hT-1">
          <mxGeometry relative="1" as="geometry" />
        </mxCell>
        <mxCell id="uw05SH3BXKOB_g-XB-hT-4" value="json" style="edgeLabel;html=1;align=center;verticalAlign=middle;resizable=0;points=[];" vertex="1" connectable="0" parent="uw05SH3BXKOB_g-XB-hT-3">
          <mxGeometry x="-0.1905" relative="1" as="geometry">
            <mxPoint as="offset" />
          </mxGeometry>
        </mxCell>
        <mxCell id="uw05SH3BXKOB_g-XB-hT-2" value="客户端" style="shape=umlActor;verticalLabelPosition=bottom;verticalAlign=top;html=1;outlineConnect=0;" vertex="1" parent="1">
          <mxGeometry x="90" y="200" width="30" height="60" as="geometry" />
        </mxCell>
        <mxCell id="uw05SH3BXKOB_g-XB-hT-8" value="" style="edgeStyle=orthogonalEdgeStyle;rounded=0;orthogonalLoop=1;jettySize=auto;html=1;" edge="1" parent="1" source="uw05SH3BXKOB_g-XB-hT-5" target="uw05SH3BXKOB_g-XB-hT-7">
          <mxGeometry relative="1" as="geometry" />
        </mxCell>
        <mxCell id="uw05SH3BXKOB_g-XB-hT-5" value="调用省平台接口" style="rounded=0;whiteSpace=wrap;html=1;fillColor=#d5e8d4;strokeColor=#82b366;" vertex="1" parent="1">
          <mxGeometry x="350" y="200" width="120" height="60" as="geometry" />
        </mxCell>
        <mxCell id="uw05SH3BXKOB_g-XB-hT-10" value="Y" style="edgeStyle=orthogonalEdgeStyle;rounded=0;orthogonalLoop=1;jettySize=auto;html=1;" edge="1" parent="1" source="uw05SH3BXKOB_g-XB-hT-7" target="uw05SH3BXKOB_g-XB-hT-9">
          <mxGeometry relative="1" as="geometry" />
        </mxCell>
        <mxCell id="uw05SH3BXKOB_g-XB-hT-12" value="N" style="edgeStyle=orthogonalEdgeStyle;rounded=0;orthogonalLoop=1;jettySize=auto;html=1;" edge="1" parent="1" source="uw05SH3BXKOB_g-XB-hT-7" target="uw05SH3BXKOB_g-XB-hT-11">
          <mxGeometry relative="1" as="geometry" />
        </mxCell>
        <mxCell id="uw05SH3BXKOB_g-XB-hT-7" value="是否调用成功" style="rhombus;whiteSpace=wrap;html=1;rounded=0;" vertex="1" parent="1">
          <mxGeometry x="505" y="190" width="80" height="80" as="geometry" />
        </mxCell>
        <mxCell id="uw05SH3BXKOB_g-XB-hT-14" value="" style="edgeStyle=orthogonalEdgeStyle;rounded=0;orthogonalLoop=1;jettySize=auto;html=1;" edge="1" parent="1" source="uw05SH3BXKOB_g-XB-hT-9" target="uw05SH3BXKOB_g-XB-hT-13">
          <mxGeometry relative="1" as="geometry" />
        </mxCell>
        <mxCell id="uw05SH3BXKOB_g-XB-hT-19" value="" style="edgeStyle=orthogonalEdgeStyle;rounded=0;orthogonalLoop=1;jettySize=auto;html=1;" edge="1" parent="1" source="uw05SH3BXKOB_g-XB-hT-9" target="uw05SH3BXKOB_g-XB-hT-18">
          <mxGeometry relative="1" as="geometry" />
        </mxCell>
        <mxCell id="uw05SH3BXKOB_g-XB-hT-9" value="将上报数据发往mq" style="whiteSpace=wrap;html=1;rounded=0;" vertex="1" parent="1">
          <mxGeometry x="645" y="200" width="120" height="60" as="geometry" />
        </mxCell>
        <mxCell id="uw05SH3BXKOB_g-XB-hT-11" value="返回调用失败响应" style="whiteSpace=wrap;html=1;rounded=0;" vertex="1" parent="1">
          <mxGeometry x="485" y="320" width="120" height="60" as="geometry" />
        </mxCell>
        <mxCell id="uw05SH3BXKOB_g-XB-hT-13" value="返回上报成功响应" style="whiteSpace=wrap;html=1;rounded=0;" vertex="1" parent="1">
          <mxGeometry x="810" y="200" width="120" height="60" as="geometry" />
        </mxCell>
        <mxCell id="uw05SH3BXKOB_g-XB-hT-18" value="rabbitmq" style="whiteSpace=wrap;html=1;rounded=0;" vertex="1" parent="1">
          <mxGeometry x="645" y="320" width="120" height="60" as="geometry" />
        </mxCell>
        <mxCell id="uw05SH3BXKOB_g-XB-hT-22" style="edgeStyle=orthogonalEdgeStyle;rounded=0;orthogonalLoop=1;jettySize=auto;html=1;entryX=0.5;entryY=1;entryDx=0;entryDy=0;" edge="1" parent="1" source="uw05SH3BXKOB_g-XB-hT-20" target="uw05SH3BXKOB_g-XB-hT-18">
          <mxGeometry relative="1" as="geometry" />
        </mxCell>
        <mxCell id="uw05SH3BXKOB_g-XB-hT-20" value="消费上报数据" style="whiteSpace=wrap;html=1;rounded=0;" vertex="1" parent="1">
          <mxGeometry x="645" y="440" width="120" height="60" as="geometry" />
        </mxCell>
      </root>
    </mxGraphModel>
  </diagram>
</mxfile>
